<?xml version="1.0" encoding="utf-8"?>
<svg
  xmlns="http://www.w3.org/2000/svg"
  width="48"
  height="48"
  viewBox="0 0 1500 2300"
  transform="rotate(-90)"
>
  <path
    fill-rule="nonzero"
    fill="rgb(0%, 0%, 0%)"
    fill-opacity="1"
    d="M 596.519 24.367 C 482.401 24.367 389.421 118.926 389.421 233.496 C 389.421 294.016 415.78 348.336 457.069 386.598 L 302.991 657.695 C 283.19 651.309 262.519 646.976 240.663 646.976 C 126.562 646.976 33.573 741.086 33.573 855.668 C 33.573 970.238 126.562 1064.8 240.663 1064.8 C 354.788 1064.8 447.761 970.238 447.761 855.668 C 447.761 795.758 422.011 741.828 381.44 703.617 L 535.698 431.898 C 555.058 437.988 575.218 442.187 596.519 442.187 C 617.839 442.187 638.038 438.008 657.421 431.898 L 805.73 692.988 C 757.901 731.348 726.569 789.766 726.569 855.668 C 726.569 916.219 752.968 970.676 794.3 1009.03 L 650.058 1262.67 C 627.448 1254.06 603.249 1248.75 577.718 1248.75 C 463.601 1248.75 370.71 1342.86 370.71 1457.44 C 370.71 1517.99 397.108 1572.45 438.448 1610.81 L 292.698 1866.75 C 273.468 1860.76 253.468 1856.55 232.331 1856.55 C 118.214 1856.56 25.237 1950.67 25.237 2065.24 C 25.237 2179.82 118.214 2274.37 232.331 2274.37 C 346.448 2274.37 439.339 2179.82 439.339 2065.24 C 439.339 2004.68 412.94 1950.31 371.608 1912.05 L 516.909 1656.2 C 536.261 1662.3 556.421 1666.57 577.718 1666.57 C 599.05 1666.57 619.249 1662.31 638.628 1656.2 L 784.64 1913.11 C 743.991 1951.33 718.14 2005.26 718.14 2065.24 C 718.14 2179.82 811.12 2274.37 925.241 2274.37 C 1039.34 2274.37 1132.34 2179.82 1132.34 2065.24 C 1132.34 1950.67 1039.34 1856.56 925.241 1856.55 C 903.39 1856.55 882.71 1860.91 862.921 1867.28 L 717.081 1610.81 C 758.421 1572.45 784.819 1517.99 784.819 1457.44 C 784.819 1401.26 762.269 1350.16 726.038 1312.49 L 872.671 1054.43 C 892.05 1060.55 912.241 1064.8 933.569 1064.8 C 954.87 1064.8 975.03 1060.54 994.39 1054.43 L 1134.73 1301.5 C 1091.53 1339.87 1063.63 1395.31 1063.63 1457.44 C 1063.63 1572.01 1156.54 1666.57 1270.63 1666.57 C 1384.76 1666.57 1477.72 1572.01 1477.72 1457.44 C 1477.72 1342.86 1384.76 1248.75 1270.63 1248.75 C 1251 1248.75 1232.36 1252.43 1214.35 1257.61 L 1072.93 1009.03 C 1114.28 970.676 1140.66 916.219 1140.66 855.668 C 1140.66 741.086 1047.69 646.976 933.569 646.976 C 917.651 646.976 902.288 649.195 887.39 652.648 L 736.14 386.426 C 777.319 348.176 803.608 293.926 803.608 233.496 C 803.608 118.926 710.62 24.367 596.519 24.367 Z M 596.519 115.148 C 660.999 115.148 712.831 167.426 712.831 233.496 C 712.831 274.797 692.589 310.547 661.671 331.547 C 661.671 331.547 661.671 331.547 661.218 331.547 C 656.999 333.078 653.03 335.226 649.429 337.926 C 633.48 346.187 615.589 351.226 596.331 351.226 C 576.921 351.226 558.909 346.129 542.87 337.758 C 539.448 335.195 535.69 333.137 531.698 331.637 C 500.511 310.676 480.108 274.836 480.108 233.316 C 480.108 167.246 531.839 114.969 596.331 114.969 L 596.519 115.148 Z M 240.663 737.758 C 305.151 737.758 356.98 789.586 356.98 855.668 C 356.98 921.738 305.151 973.926 240.663 973.926 C 176.179 973.926 124.444 921.738 124.444 855.668 C 124.444 789.586 176.179 737.758 240.663 737.758 Z M 933.569 737.758 C 998.058 737.758 1049.88 789.586 1049.88 855.668 C 1049.88 897.367 1029.19 933.496 997.761 954.508 C 993.901 955.988 990.261 957.988 986.94 960.445 C 970.921 968.828 952.948 973.926 933.569 973.926 C 914.03 973.926 895.968 968.707 879.851 960.187 C 876.73 957.926 873.331 956.078 869.749 954.687 C 838.159 933.695 817.351 897.476 817.351 855.668 C 817.351 789.586 869.089 737.758 933.569 737.758 Z M 577.718 1339.53 C 597.741 1339.53 616.288 1344.94 632.69 1353.8 C 637.901 1359.88 644.628 1364.46 652.19 1367.1 C 677.608 1388.58 694.038 1420.6 694.038 1457.44 C 694.038 1499.14 673.339 1535.27 641.909 1556.28 C 638.05 1557.76 634.409 1559.76 631.089 1562.23 C 615.069 1570.6 597.089 1575.7 577.718 1575.7 C 558.12 1575.7 540.069 1570.44 523.909 1561.87 C 520.839 1559.66 517.499 1557.84 513.98 1556.46 C 482.358 1535.48 461.499 1499.28 461.499 1457.44 C 461.499 1391.37 513.241 1339.53 577.718 1339.53 Z M 1270.63 1339.53 C 1335.12 1339.53 1386.94 1391.37 1386.94 1457.44 C 1386.94 1523.51 1335.12 1575.7 1270.63 1575.7 C 1206.14 1575.7 1154.41 1523.51 1154.41 1457.44 C 1154.41 1391.37 1206.14 1339.53 1270.63 1339.53 Z M 232.331 1947.33 C 296.819 1947.33 348.558 1999.17 348.558 2065.24 C 348.558 2131.31 296.819 2183.59 232.331 2183.59 C 167.847 2183.59 116.019 2131.31 116.019 2065.24 C 116.019 1999.17 167.847 1947.33 232.331 1947.33 Z M 925.241 1947.33 C 989.73 1947.33 1041.46 1999.17 1041.46 2065.24 C 1041.46 2131.31 989.73 2183.59 925.241 2183.59 C 860.749 2183.59 808.921 2131.31 808.921 2065.24 C 808.921 2025.99 827.46 1992.07 855.819 1970.74 C 864.269 1968.54 871.901 1963.95 877.808 1957.53 C 892.288 1951.05 908.288 1947.33 925.241 1947.33 Z M 925.241 1947.33"
  />
</svg>
